PathFileType	4	(x/y/z)	A01_PREF_T0015.trc
DataRate	CameraRate	NumFrames	NumMarkers	Units	OrigDataRate	OrigDataStartFrame	OrigNumFrames
240	240	6	48	mm	240	109	288
Frame#	Time	TOP_HEAD			R_AC			L_AC			R_ASIS			L_ASIS			R_PSIS			L_PSIS			SACRAL			L_IC			R_IC			L_GT			R_GT			R_LAT_KNEE			R_MED_KNEE			L_MED_KNEE			L_LAT_KNEE			R_TOE			L_TOE			R_1ST_MET			L_1ST_MET			L_5TH_MET			R_5TH_MET			R_LAT_ANK			R_MED_ANK			L_MED_ANK			L_LAT_ANK			L_HEEL_SUP			R_HEEL_SUP			L_HEEL_LAT			R_HEEL_LAT			L_HEEL_MED			R_HEEL_MED			R_SHANK_PROX_POST			R_SHANK_PROX_ANT			R_SHANK_DIST_ANT			R_SHANK_DIST_POST			R_THIGH_PROX_POST			R_THIGH_PROX_ANT			R_THIGH_DIST_ANT			R_THIGH_DIST_POST			L_SHANK_PROX_ANT			L_SHANK_PROX_POST			L_SHANK_DIST_POST			L_SHANK_DIST_ANT			L_THIGH_PROX_ANT			L_THIGH_PROX_POST			L_THIGH_DIST_POST			L_THIGH_DIST_ANT			
		X1	Y1	Z1	X2	Y2	Z2	X3	Y3	Z3	X4	Y4	Z4	X5	Y5	Z5	X6	Y6	Z6	X7	Y7	Z7	X8	Y8	Z8	X9	Y9	Z9	X10	Y10	Z10	X11	Y11	Z11	X12	Y12	Z12	X13	Y13	Z13	X14	Y14	Z14	X15	Y15	Z15	X16	Y16	Z16	X17	Y17	Z17	X18	Y18	Z18	X19	Y19	Z19	X20	Y20	Z20	X21	Y21	Z21	X22	Y22	Z22	X23	Y23	Z23	X24	Y24	Z24	X25	Y25	Z25	X26	Y26	Z26	X27	Y27	Z27	X28	Y28	Z28	X29	Y29	Z29	X30	Y30	Z30	X31	Y31	Z31	X32	Y32	Z32	X33	Y33	Z33	X34	Y34	Z34	X35	Y35	Z35	X36	Y36	Z36	X37	Y37	Z37	X38	Y38	Z38	X39	Y39	Z39	X40	Y40	Z40	X41	Y41	Z41	X42	Y42	Z42	X43	Y43	Z43	X44	Y44	Z44	X45	Y45	Z45	X46	Y46	Z46	X47	Y47	Z47	X48	Y48	Z48	

109	0.45157	-56.591	1811.9	338.3	-232.59	1568.8	528.67	-233.49	1558	68.43	-237.52	1105.3	518.55	-214.76	1032.9	171.99	-442.97	1089.8	388.21	-430.23	1098.4	255.81	-452.36	1063.9	320.47	-235.95	1153.4	125.96	-273.83	1208.5	520.56	-283.44	954.79	132.58	-282.85	994.61	564.94	-140.27	605.81	527.01	-90.008	605.56	402.52	-304.24	557.69	365	-319.76	565.3	207.75	23.639	104.11	468.97	-250.13	77.711	275.69	-51.973	84.26	410.82	-333.21	56.234	328.65	-360.52	48.076	201.47	-97.588	75.935	536.45	-211.86	142.82	495.43	-185.62	152.14	396.71	-442.87	141.04	308.93	-474.1	137.46	241.15	-570.76	93.902	279.17	-298.3	107.94	423.07	-562.67	64.224	247.92	-296.82	84.913	459.03	-553.38	62.957	311.8	-285.09	81.3	399.58	-250.98	443.75	509.42	-188.61	427.64	543.86	-190.85	352.83	529.34	-241.3	360.68	506	-263.94	846.63	552.41	-210.75	891.51	558.02	-171.48	809.09	555.93	-223.6	766.88	548.02	-294.06	474.68	222.86	-347.38	487.01	210.31	-368.08	428.21	219.37	-314.78	423.03	230.07	-235.93	809.63	175.75	-304.54	821.45	157.36	-301.54	746.14	172.28	-238.07	736.28	188.78
110	0.45575	-51.541	1811.4	339.32	-227.25	1568.3	529	-228.03	1557.9	68.797	-232.25	1104.8	518.71	-210.02	1032.4	172.11	-437.87	1089.4	388.6	-425.27	1098.1	256.21	-447.4	1063.6	320.86	-231.1	1153.1	126.17	-268.68	1207.9	520.82	-278.99	954.46	132.68	-277.56	994.04	565.19	-134.58	605.23	526.29	-84.628	605.4	401.77	-301.97	557.39	365.1	-317.45	565.06	207.84	40.92	107.28	469.92	-249.96	77.571	275.68	-34.077	85.423	411.72	-333.08	56.241	328.65	-360.43	48.14	201.48	-79.769	76.461	537.29	-195.52	140.32	495.84	-169.32	150.06	397.12	-442.41	141.37	308.96	-473.63	137.91	241.15	-570.52	94.483	279.16	-281.02	103.15	423.43	-562.52	64.772	247.91	-279.04	80.28	459.49	-553.23	63.513	311.78	-267.06	76.755	400.1	-241.87	440.5	508.92	-179.2	425.94	543.5	-179.77	351.07	529.19	-230.23	357.63	505.68	-258.62	845.96	552.23	-205.45	890.84	558.04	-166.08	808.44	555.6	-218.26	766.24	547.52	-292.11	474.34	222.92	-345.36	486.92	210.38	-366.33	428.21	219.41	-313.05	422.78	230.13	-232.22	809.14	175.88	-300.74	821.26	157.48	-298.08	745.93	172.41	-234.71	735.78	188.89
111	0.45993	-46.474	1810.9	340.34	-221.89	1567.8	529.35	-222.57	1557.8	69.179	-226.93	1104.2	518.88	-205.27	1031.9	172.22	-432.75	1089	389.01	-420.3	1097.8	256.63	-442.42	1063.3	321.28	-226.27	1152.8	126.39	-263.47	1207.3	521.09	-274.54	954.1	132.77	-272.24	993.42	565.45	-128.97	604.56	525.58	-79.329	605.13	400.99	-299.67	557.08	365.19	-315.12	564.8	207.93	58.009	110.62	470.83	-249.79	77.429	275.67	-16.339	86.791	412.59	-332.96	56.248	328.65	-360.34	48.203	201.49	-62.067	77.189	538.13	-179.24	138.03	496.29	-153.09	148.17	397.54	-441.94	141.69	308.97	-473.16	138.37	241.14	-570.29	95.068	279.14	-263.73	98.588	423.83	-562.37	65.326	247.9	-261.25	75.891	459.98	-553.08	64.074	311.76	-249.05	72.461	400.66	-232.78	437.25	508.47	-169.83	424.24	543.15	-168.72	349.36	529.06	-219.2	354.63	505.41	-253.33	845.24	552.05	-200.17	890.09	558.06	-160.72	807.7	555.26	-212.99	765.53	547.03	-290.14	473.99	222.98	-343.33	486.81	210.44	-364.58	428.2	219.46	-311.32	422.52	230.18	-228.5	808.63	176	-296.93	821.04	157.61	-294.6	745.69	172.52	-231.34	735.26	188.99
112	0.46411	-41.391	1810.4	341.37	-216.51	1567.2	529.7	-217.1	1557.6	69.577	-221.57	1103.5	519.05	-200.52	1031.3	172.33	-427.6	1088.6	389.45	-415.32	1097.5	257.08	-437.43	1063	321.72	-221.45	1152.4	126.6	-258.22	1206.6	521.36	-270.09	953.72	132.87	-266.89	992.74	565.71	-123.44	603.81	524.86	-74.11	604.78	400.18	-297.36	556.74	365.28	-312.76	564.52	208.01	74.898	114.13	471.69	-249.62	77.286	275.66	1.2313	88.364	413.43	-332.84	56.254	328.65	-360.25	48.265	201.49	-44.491	78.117	538.94	-163.03	135.93	496.75	-136.95	146.47	397.97	-441.47	142.02	308.99	-472.69	138.83	241.13	-570.05	95.659	279.11	-246.46	94.265	424.27	-562.21	65.885	247.89	-243.48	71.748	460.52	-552.93	64.642	311.74	-231.07	68.422	401.27	-223.68	434.02	508.08	-160.49	422.55	542.83	-157.71	347.7	528.94	-208.21	351.7	505.2	-248.07	844.45	551.88	-194.9	889.26	558.08	-155.42	806.86	554.93	-207.77	764.75	546.54	-288.17	473.63	223.03	-341.29	486.68	210.49	-362.81	428.18	219.5	-309.57	422.25	230.23	-224.76	808.1	176.11	-293.11	820.79	157.74	-291.11	745.43	172.64	-227.96	734.72	189.09
113	0.46829	-36.29	1809.8	342.41	-211.1	1566.6	530.07	-211.64	1557.4	69.992	-216.15	1102.8	519.22	-195.76	1030.7	172.43	-422.43	1088.2	389.91	-410.32	1097.1	257.54	-432.41	1062.6	322.19	-216.64	1152	126.82	-252.92	1205.9	521.63	-265.65	953.31	132.96	-261.52	992.01	565.97	-117.99	602.98	524.14	-68.972	604.33	399.35	-295.02	556.39	365.35	-310.38	564.23	208.08	91.579	117.81	472.49	-249.45	77.141	275.65	18.622	90.14	414.23	-332.72	56.26	328.65	-360.16	48.327	201.5	-27.047	79.244	539.74	-146.88	134.04	497.25	-120.9	144.96	398.43	-440.99	142.34	308.99	-472.22	139.28	241.12	-569.81	96.254	279.08	-229.2	90.18	424.75	-562.05	66.449	247.87	-225.71	67.856	461.09	-552.78	65.215	311.72	-213.13	64.64	401.91	-214.6	430.81	507.74	-151.18	420.88	542.53	-146.73	346.1	528.85	-197.27	348.84	505.03	-242.85	843.6	551.72	-189.64	888.35	558.1	-150.16	805.93	554.62	-202.61	763.89	546.07	-286.18	473.25	223.07	-339.24	486.54	210.54	-361.03	428.14	219.53	-307.81	421.96	230.27	-221.01	807.53	176.23	-289.27	820.52	157.86	-287.6	745.14	172.75	-224.57	734.16	189.17
114	0.47247	-31.172	1809.2	343.46	-205.67	1566	530.46	-206.18	1557.2	70.425	-210.69	1102.1	519.39	-190.99	1030.1	172.53	-417.22	1087.7	390.39	-405.29	1096.7	258.04	-427.38	1062.2	322.68	-211.83	1151.6	127.03	-247.56	1205.1	521.92	-261.21	952.87	133.05	-256.12	991.23	566.24	-112.61	602.07	523.41	-63.916	603.8	398.48	-292.67	556.03	365.42	-307.97	563.93	208.15	108.04	121.66	473.23	-249.29	76.995	275.64	35.822	92.117	415	-332.61	56.266	328.65	-360.07	48.387	201.5	-9.7412	80.57	540.52	-130.81	132.35	497.76	-104.97	143.65	398.89	-440.51	142.66	309	-471.74	139.73	241.11	-569.57	96.856	279.05	-211.98	86.335	425.28	-561.89	67.02	247.86	-207.98	64.214	461.7	-552.62	65.794	311.69	-195.26	61.116	402.6	-205.53	427.62	507.46	-141.91	419.23	542.24	-135.8	344.56	528.77	-186.36	346.06	504.91	-237.65	842.69	551.57	-184.38	887.36	558.14	-144.93	804.9	554.31	-197.5	762.95	545.61	-284.17	472.85	223.11	-337.17	486.39	210.58	-359.24	428.09	219.56	-306.04	421.66	230.31	-217.25	806.94	176.34	-285.42	820.23	157.98	-284.08	744.83	172.85	-221.17	733.58	189.25
